# xmcd
#
# Track frame offsets:
#	150
#	14251
#	33661
#	47457
#	67210
#	81143
#	104278
#	118105
#	136421
#	148832
#
# Disc length: 2135 seconds
# Revision: 1
# Processed by: cddbd v1.5.2PL0 Copyright (c) Steve Scherf et al.
# Submitted via: dBpowerAMP V12.0
#
DISCID=8e08550a
DTITLE=RB Stone - Loosen Up!
DYEAR=2011
DGENRE=Blues
TTITLE0=High Horse
TTITLE1=Long Gone Lonesome Blues
TTITLE2=Loosen Up
TTITLE3=God Heals You When You Cry
TTITLE4=Texas Drunk Tank Blues
TTITLE5=A Bad Case Of Blues Goin' On
TTITLE6=Ain't Buyin That Bull Today
TTITLE7=Gone As Gone Can Be
TTITLE8=She's Too Hot To Handle
TTITLE9=Harley Heart
EXTD=
EXTT0=
EXTT1=
EXTT2=
EXTT3=
EXTT4=
EXTT5=
EXTT6=
EXTT7=
EXTT8=
EXTT9=
PLAYORDER=
